# xmcd
#
# Track frame offsets: 
#        150
#        15862
#        36745
#        56222
#        74850
#        95065
#        116252
#        135987
#        149982
#        168475
#        189027
#        209050
#
# Disc length: 3123 seconds
#
# Revision: 0
# Processed by: cddbd v1.5.2PL0 Copyright (c) Steve Scherf et al.
# Submitted via: ExactAudioCopy v0.95b3
#
DISCID=bc0c310c
DTITLE=Craig Carothers - Home Remedy
DYEAR=1992
DGENRE=Blues
TTITLE0=01. So Help Me
TTITLE1=02. No Man's Land
TTITLE2=03. Straight As An Arrow
TTITLE3=04. Red Beret
TTITLE4=05. Plastic Rose
TTITLE5=06. Hide It From You
TTITLE6=07. Stick And Stones
TTITLE7=08. No Girl Of Mine
TTITLE8=09. S.O'L.
TTITLE9=10. Have Another Drink
TTITLE10=11. Days Are Numbered
TTITLE11=12. Tell Me I'm Wrong
EXTD=
EXTT0=
EXTT1=
EXTT2=
EXTT3=
EXTT4=
EXTT5=
EXTT6=
EXTT7=
EXTT8=
EXTT9=
EXTT10=
EXTT11=
PLAYORDER=
